<svg xmlns="http://www.w3.org/2000/svg" viewBox="0 0 1000 600">
  <defs>
    <linearGradient id="mpt-grad" x1="0%" y1="0%" x2="100%" y2="0%">
      <stop offset="0%" style="stop-color:#43e97b;stop-opacity:0.7" />
      <stop offset="100%" style="stop-color:#38f9d7;stop-opacity:0.7" />
    </linearGradient>
    <linearGradient id="kelly-grad" x1="0%" y1="0%" x2="100%" y2="0%">
      <stop offset="0%" style="stop-color:#4facfe;stop-opacity:0.7" />
      <stop offset="100%" style="stop-color:#00f2fe;stop-opacity:0.7" />
    </linearGradient>
    <linearGradient id="barbell-grad" x1="0%" y1="0%" x2="100%" y2="0%">
      <stop offset="0%" style="stop-color:#f093fb;stop-opacity:0.7" />
      <stop offset="100%" style="stop-color:#f5576c;stop-opacity:0.7" />
    </linearGradient>
    <linearGradient id="five-grad" x1="0%" y1="0%" x2="100%" y2="0%">
      <stop offset="0%" style="stop-color:#667eea;stop-opacity:0.9" />
      <stop offset="100%" style="stop-color:#764ba2;stop-opacity:0.9" />
    </linearGradient>
  </defs>

  <!-- Background -->
  <rect width="1000" height="600" fill="#f8fafc"/>

  <!-- Title -->
  <text x="500" y="45" font-family="Arial, sans-serif" font-size="24" font-weight="bold" text-anchor="middle" fill="#1e293b" dominant-baseline="middle">
    Traditional Frameworks vs. Five Paradigms
  </text>
  <text x="500" y="80" font-family="Arial, sans-serif" font-size="14" text-anchor="middle" fill="#64748b" dominant-baseline="middle">
    How existing theories map onto the unified framework
  </text>

  <!-- Paradigm Labels (Top) -->
  <g transform="translate(0, 105)" font-family="Arial, sans-serif" text-anchor="middle" dominant-baseline="middle">
    <rect x="150" y="0" width="150" height="36" rx="5" fill="#fef3c7"/>
    <text x="225" y="18" font-size="11" font-weight="bold" fill="#92400e">P5: META-GAME</text>

    <rect x="320" y="0" width="150" height="36" rx="5" fill="#fecaca"/>
    <text x="395" y="18" font-size="11" font-weight="bold" fill="#b91c1c">P1: MINMAX</text>

    <rect x="490" y="0" width="150" height="36" rx="5" fill="#bfdbfe"/>
    <text x="565" y="18" font-size="11" font-weight="bold" fill="#1d4ed8">P2: KELLY</text>

    <rect x="660" y="0" width="150" height="36" rx="5" fill="#d1fae5"/>
    <text x="735" y="18" font-size="11" font-weight="bold" fill="#047857">P3: MEAN MAX</text>

    <rect x="830" y="0" width="150" height="36" rx="5" fill="#e9d5ff"/>
    <text x="905" y="18" font-size="11" font-weight="bold" fill="#5b21b6">P4: CONVEXITY</text>
  </g>

  <!-- Modern Portfolio Theory Row -->
  <g transform="translate(0, 160)">
    <rect x="20" y="0" width="110" height="60" rx="8" fill="url(#mpt-grad)"/>
    <text x="75" y="22" font-family="Arial, sans-serif" font-size="13" font-weight="bold" text-anchor="middle" fill="white" dominant-baseline="middle">
      Modern
    </text>
    <text x="75" y="40" font-family="Arial, sans-serif" font-size="13" font-weight="bold" text-anchor="middle" fill="white" dominant-baseline="middle">
      Portfolio
    </text>
    <text x="75" y="56" font-family="Arial, sans-serif" font-size="11" text-anchor="middle" fill="white" dominant-baseline="middle">
      Theory
    </text>

    <!-- Coverage bars -->
    <rect x="150" y="5" width="150" height="50" rx="5" fill="#f3f4f6" opacity="0.3"/>
    <rect x="320" y="5" width="150" height="50" rx="5" fill="#f3f4f6" opacity="0.3"/>
    <rect x="490" y="5" width="150" height="50" rx="5" fill="#f3f4f6" opacity="0.3"/>
    <rect x="660" y="5" width="150" height="50" rx="5" fill="#d1fae5" opacity="0.9"/>
    <text x="735" y="35" font-family="Arial, sans-serif" font-size="14" font-weight="bold" text-anchor="middle" fill="#047857" dominant-baseline="middle">
      ✓ ONLY
    </text>
    <rect x="830" y="5" width="150" height="50" rx="5" fill="#f3f4f6" opacity="0.3"/>
  </g>

  <!-- Kelly Criterion Row -->
  <g transform="translate(0, 250)">
    <rect x="20" y="0" width="110" height="60" rx="8" fill="url(#kelly-grad)"/>
    <text x="75" y="26" font-family="Arial, sans-serif" font-size="13" font-weight="bold" text-anchor="middle" fill="white" dominant-baseline="middle">
      Kelly
    </text>
    <text x="75" y="46" font-family="Arial, sans-serif" font-size="13" font-weight="bold" text-anchor="middle" fill="white" dominant-baseline="middle">
      Criterion
    </text>

    <!-- Coverage bars -->
    <rect x="150" y="5" width="150" height="50" rx="5" fill="#f3f4f6" opacity="0.3"/>
    <rect x="320" y="5" width="150" height="50" rx="5" fill="#f3f4f6" opacity="0.3"/>
    <rect x="490" y="5" width="150" height="50" rx="5" fill="#bfdbfe" opacity="0.9"/>
    <text x="565" y="35" font-family="Arial, sans-serif" font-size="14" font-weight="bold" text-anchor="middle" fill="#1d4ed8" dominant-baseline="middle">
      ✓ ONLY
    </text>
    <rect x="660" y="5" width="150" height="50" rx="5" fill="#f3f4f6" opacity="0.3"/>
    <rect x="830" y="5" width="150" height="50" rx="5" fill="#f3f4f6" opacity="0.3"/>
  </g>

  <!-- Taleb's Barbell Row -->
  <g transform="translate(0, 340)">
    <rect x="20" y="0" width="110" height="60" rx="8" fill="url(#barbell-grad)"/>
    <text x="75" y="22" font-family="Arial, sans-serif" font-size="13" font-weight="bold" text-anchor="middle" fill="white" dominant-baseline="middle">
      Taleb's
    </text>
    <text x="75" y="40" font-family="Arial, sans-serif" font-size="13" font-weight="bold" text-anchor="middle" fill="white" dominant-baseline="middle">
      Barbell
    </text>
    <text x="75" y="56" font-family="Arial, sans-serif" font-size="11" text-anchor="middle" fill="white" dominant-baseline="middle">
      Strategy
    </text>

    <!-- Coverage bars -->
    <rect x="150" y="5" width="150" height="50" rx="5" fill="#fef3c7" opacity="0.6"/>
    <text x="225" y="20" font-family="Arial, sans-serif" font-size="10" text-anchor="middle" fill="#92400e" dominant-baseline="middle">
      Antifragility
    </text>
    <text x="225" y="34" font-family="Arial, sans-serif" font-size="10" text-anchor="middle" fill="#92400e" dominant-baseline="middle">
      as meta-
    </text>
    <text x="225" y="48" font-family="Arial, sans-serif" font-size="10" text-anchor="middle" fill="#92400e" dominant-baseline="middle">
      framework
    </text>

    <rect x="320" y="5" width="150" height="50" rx="5" fill="#fecaca" opacity="0.9"/>
    <text x="395" y="28" font-family="Arial, sans-serif" font-size="12" font-weight="bold" text-anchor="middle" fill="#b91c1c" dominant-baseline="middle">
      ✓ 90%
    </text>
    <text x="395" y="46" font-family="Arial, sans-serif" font-size="10" text-anchor="middle" fill="#b91c1c" dominant-baseline="middle">
      Safety
    </text>

    <rect x="490" y="5" width="150" height="50" rx="5" fill="#f3f4f6" opacity="0.3"/>
    <rect x="660" y="5" width="150" height="50" rx="5" fill="#f3f4f6" opacity="0.3"/>

    <rect x="830" y="5" width="150" height="50" rx="5" fill="#e9d5ff" opacity="0.9"/>
    <text x="905" y="28" font-family="Arial, sans-serif" font-size="12" font-weight="bold" text-anchor="middle" fill="#5b21b6" dominant-baseline="middle">
      ✓ 10%
    </text>
    <text x="905" y="46" font-family="Arial, sans-serif" font-size="10" text-anchor="middle" fill="#5b21b6" dominant-baseline="middle">
      Convexity
    </text>
  </g>

  <!-- Five Paradigms Row -->
  <g transform="translate(0, 430)">
    <rect x="20" y="0" width="110" height="60" rx="8" fill="url(#five-grad)"/>
    <text x="75" y="22" font-family="Arial, sans-serif" font-size="13" font-weight="bold" text-anchor="middle" fill="white" dominant-baseline="middle">
      Five
    </text>
    <text x="75" y="40" font-family="Arial, sans-serif" font-size="13" font-weight="bold" text-anchor="middle" fill="white" dominant-baseline="middle">
      Paradigms
    </text>
    <text x="75" y="56" font-family="Arial, sans-serif" font-size="11" text-anchor="middle" fill="white" dominant-baseline="middle">
      (Unified)
    </text>

    <!-- Coverage bars - ALL covered -->
    <rect x="150" y="5" width="150" height="50" rx="5" fill="#fef3c7" opacity="0.9"/>
    <text x="225" y="35" font-family="Arial, sans-serif" font-size="14" font-weight="bold" text-anchor="middle" fill="#92400e" dominant-baseline="middle">
      ✓
    </text>

    <rect x="320" y="5" width="150" height="50" rx="5" fill="#fecaca" opacity="0.9"/>
    <text x="395" y="35" font-family="Arial, sans-serif" font-size="14" font-weight="bold" text-anchor="middle" fill="#b91c1c" dominant-baseline="middle">
      ✓
    </text>

    <rect x="490" y="5" width="150" height="50" rx="5" fill="#bfdbfe" opacity="0.9"/>
    <text x="565" y="35" font-family="Arial, sans-serif" font-size="14" font-weight="bold" text-anchor="middle" fill="#1d4ed8" dominant-baseline="middle">
      ✓
    </text>

    <rect x="660" y="5" width="150" height="50" rx="5" fill="#d1fae5" opacity="0.9"/>
    <text x="735" y="35" font-family="Arial, sans-serif" font-size="14" font-weight="bold" text-anchor="middle" fill="#047857" dominant-baseline="middle">
      ✓
    </text>

    <rect x="830" y="5" width="150" height="50" rx="5" fill="#e9d5ff" opacity="0.9"/>
    <text x="905" y="35" font-family="Arial, sans-serif" font-size="14" font-weight="bold" text-anchor="middle" fill="#5b21b6" dominant-baseline="middle">
      ✓
    </text>
  </g>

  <!-- Bottom annotation -->
  <g transform="translate(0, 520)">
    <rect x="20" y="0" width="960" height="60" rx="8" fill="#eef2ff"/>
    <text x="500" y="25" font-family="Arial, sans-serif" font-size="13" font-weight="bold" text-anchor="middle" fill="#4338ca" dominant-baseline="middle">
      KEY INSIGHT
    </text>
    <text x="500" y="45" font-family="Arial, sans-serif" font-size="12" text-anchor="middle" fill="#4338ca" dominant-baseline="middle">
      Traditional frameworks optimize one dimension. Five Paradigms optimizes all five simultaneously.
    </text>
  </g>
</svg>