<svg xmlns="http://www.w3.org/2000/svg" viewBox="0 0 900 600">
  <defs>
    <linearGradient id="callGrad" x1="0%" y1="100%" x2="0%" y2="0%">
      <stop offset="0%" style="stop-color:#f97316;stop-opacity:0.8"/>
      <stop offset="100%" style="stop-color:#fb923c;stop-opacity:0.6"/>
    </linearGradient>
    <linearGradient id="putGrad" x1="0%" y1="0%" x2="0%" y2="100%">
      <stop offset="0%" style="stop-color:#3b82f6;stop-opacity:0.8"/>
      <stop offset="100%" style="stop-color:#60a5fa;stop-opacity:0.6"/>
    </linearGradient>
  </defs>

  <!-- Background -->
  <rect width="900" height="600" fill="#0f1419"/>

  <!-- Title -->
  <text x="450" y="35" fill="#f3f4f6" font-size="22" font-weight="bold" text-anchor="middle">TSLA Gamma Exposure Profile</text>
  <text x="450" y="58" fill="#9ca3af" font-size="13" text-anchor="middle">Call GEX (Orange ↑) vs Put GEX (Blue ↓) by Strike Price</text>

  <!-- Axes -->
  <line x1="80" y1="300" x2="850" y2="300" stroke="#4b5563" stroke-width="2"/>
  <line x1="80" y1="100" x2="80" y2="500" stroke="#4b5563" stroke-width="2"/>

  <!-- Strike price labels -->
  <g fill="#9ca3af" font-size="11">
    <text x="150" y="315" text-anchor="middle">400</text>
    <text x="250" y="315" text-anchor="middle">410</text>
    <text x="350" y="315" text-anchor="middle">420</text>
    <text x="450" y="315" text-anchor="middle">430</text>
    <text x="550" y="315" text-anchor="middle">440</text>
    <text x="650" y="315" text-anchor="middle">450</text>
    <text x="750" y="315" text-anchor="middle">460</text>
    <text x="820" y="315" text-anchor="middle">500</text>
  </g>

  <!-- Current price marker -->
  <line x1="570" y1="90" x2="570" y2="510" stroke="#10b981" stroke-width="2" stroke-dasharray="5,3"/>
  <text x="575" y="85" fill="#10b981" font-size="12" font-weight="bold">Last: $439.31</text>

  <!-- Call GEX bars (orange, pointing up) -->
  <rect x="540" y="220" width="30" height="80" fill="url(#callGrad)"/>
  <rect x="630" y="250" width="30" height="50" fill="url(#callGrad)"/>
  <rect x="800" y="150" width="30" height="150" fill="url(#callGrad)"/>

  <!-- Put GEX bars (blue, pointing down) -->
  <rect x="330" y="300" width="30" height="120" fill="url(#putGrad)"/>
  <rect x="430" y="300" width="30" height="80" fill="url(#putGrad)"/>
  <rect x="530" y="300" width="30" height="60" fill="url(#putGrad)"/>

  <!-- ATM cluster (very dense) -->
  <rect x="520" y="240" width="70" height="60" fill="#f59e0b" opacity="0.2"/>
  <text x="555" y="275" fill="#fbbf24" font-size="10" text-anchor="middle" font-weight="bold">ATM</text>
  <text x="555" y="288" fill="#fbbf24" font-size="10" text-anchor="middle" font-weight="bold">Dense</text>

  <!-- Wall labels -->
  <g font-weight="bold">
    <!-- Put Wall at 420 -->
    <circle cx="350" cy="470" r="6" fill="#3b82f6"/>
    <text x="350" y="490" fill="#3b82f6" font-size="13" text-anchor="middle">Put Wall</text>
    <text x="350" y="505" fill="#60a5fa" font-size="11" text-anchor="middle">$420</text>

    <!-- Call Wall at 500 -->
    <circle cx="815" cy="150" r="6" fill="#f97316"/>
    <text x="815" y="135" fill="#f97316" font-size="13" text-anchor="middle">Call Wall</text>
    <text x="815" y="120" fill="#fb923c" font-size="11" text-anchor="middle">$500</text>

    <!-- Hedge Wall at 430 -->
    <rect x="430" y="525" width="50" height="25" fill="#fbbf24" opacity="0.3" rx="3"/>
    <text x="455" y="542" fill="#f59e0b" font-size="11" text-anchor="middle" font-weight="bold">Hedge Wall</text>
    <text x="455" y="555" fill="#f59e0b" font-size="10" text-anchor="middle">$430</text>
  </g>

  <!-- Legend -->
  <g transform="translate(100, 530)">
    <rect x="0" y="0" width="25" height="15" fill="url(#callGrad)"/>
    <text x="30" y="12" fill="#fb923c" font-size="12">Call GEX (Resistance)</text>

    <rect x="200" y="0" width="25" height="15" fill="url(#putGrad)"/>
    <text x="230" y="12" fill="#60a5fa" font-size="12">Put GEX (Support)</text>

    <line x1="400" y1="7" x2="425" y2="7" stroke="#10b981" stroke-width="2" stroke-dasharray="5,3"/>
    <text x="430" y="12" fill="#10b981" font-size="12">Current Price</text>
  </g>

  <!-- Axis labels -->
  <text x="450" y="545" fill="#9ca3af" font-size="13" text-anchor="middle">Strike Price →</text>
  <text x="30" y="300" fill="#9ca3af" font-size="13" text-anchor="middle" transform="rotate(-90 30 300)">Gamma Exposure →</text>

  <!-- Key observations box -->
  <rect x="600" y="360" width="280" height="120" fill="#1f2937" stroke="#8b5cf6" stroke-width="2" rx="8"/>
  <text x="740" y="385" fill="#f3f4f6" font-size="13" font-weight="bold" text-anchor="middle">📊 Key Observations</text>
  <text x="615" y="405" fill="#d1d5db" font-size="11">• ATM ($430-440): Extreme density</text>
  <text x="615" y="423" fill="#d1d5db" font-size="11">• Call Wall far ($500): Room to rise</text>
  <text x="615" y="441" fill="#d1d5db" font-size="11">• Put Wall close ($420): Protected</text>
  <text x="615" y="459" fill="#fbbf24" font-size="11" font-weight="bold">→ Range: $420-$450 likely</text>
  <text x="615" y="473" fill="#9ca3af" font-size="10" font-style="italic">Breakout needs catalyst</text>
</svg>